<svg width="40" height="40" viewBox="0 0 40 40" fill="none" xmlns="http://www.w3.org/2000/svg">
    <rect width="40" height="40" rx="4" fill="#E55241" fill-opacity="0.1"/>
    <g clip-path="url(#clip0_87_889)">
    <path d="M20 21.2652C13.9908 21.2652 10.6813 24.108 10.6813 29.2701C10.6813 29.6732 11.008 30 11.4112 30H28.5888C28.992 30 29.3187 29.6732 29.3187 29.2701C29.3188 24.1083 26.0093 21.2652 20 21.2652ZM12.1677 28.5402C12.4548 24.6805 15.0862 22.7251 20 22.7251C24.9139 22.7251 27.5453 24.6805 27.8326 28.5402H12.1677Z" fill="#E55241"/>
    <path d="M20 10C17.2397 10 15.1582 12.1234 15.1582 14.9389C15.1582 17.837 17.3302 20.1944 20 20.1944C22.6698 20.1944 24.8419 17.837 24.8419 14.9392C24.8419 12.1234 22.7604 10 20 10ZM20 18.7348C18.1351 18.7348 16.618 17.0321 16.618 14.9392C16.618 12.9231 18.0404 11.4598 20 11.4598C21.9283 11.4598 23.382 12.9555 23.382 14.9392C23.382 17.0321 21.865 18.7348 20 18.7348Z" fill="#E55241"/>
    </g>
    <defs>
    <clipPath id="clip0_87_889">
    <rect width="20" height="20" fill="white" transform="translate(10 10)"/>
    </clipPath>
    </defs>
</svg>
