<svg width="16" height="16" viewBox="0 0 16 16" fill="none" xmlns="http://www.w3.org/2000/svg">
<path d="M7.99953 10.6667C7.84376 10.667 7.69281 10.6127 7.57287 10.5133L3.57287 7.18001C3.43672 7.06685 3.35111 6.90424 3.33485 6.72796C3.3186 6.55168 3.37304 6.37615 3.4862 6.24001C3.59936 6.10387 3.76197 6.01825 3.93825 6.002C4.11453 5.98574 4.29005 6.04018 4.4262 6.15334L7.99953 9.14001L11.5729 6.26001C11.6411 6.20463 11.7195 6.16328 11.8037 6.13832C11.888 6.11337 11.9763 6.10531 12.0637 6.1146C12.151 6.12389 12.2357 6.15036 12.3127 6.19247C12.3898 6.23459 12.4578 6.29153 12.5129 6.36001C12.5739 6.42856 12.6202 6.50898 12.6487 6.59622C12.6772 6.68347 12.6874 6.77567 12.6787 6.86705C12.6699 6.95843 12.6424 7.04701 12.5978 7.12724C12.5532 7.20748 12.4925 7.27765 12.4195 7.33334L8.41953 10.5533C8.29614 10.637 8.14827 10.6769 7.99953 10.6667Z" fill="#1E222E"/>
</svg>
