<svg width="24" height="24" viewBox="0 0 24 24" fill="none" xmlns="http://www.w3.org/2000/svg">
<path d="M21.8668 7.85905C22.1426 7.54027 22.3756 7.30732 22.3756 7.30732C22.3756 7.30732 22.2407 7.35636 22.0078 7.35636C20.4875 7.49736 18.8813 7.4054 18.0966 5.84218C18.0476 5.79313 18.0966 5.79313 18.0476 5.70118C17.8146 6.01995 17.7227 6.20386 17.3549 6.62072C17.0361 6.98854 16.6683 7.35636 16.2514 7.58931C15.8346 7.86517 15.2828 7.95713 14.8231 7.68126C14.3204 7.36249 14.2223 6.71881 14.2713 6.20999C14.3633 5.65827 14.5472 5.14945 14.7801 4.64677C15.056 4.046 15.1909 3.905 15.4238 3.58623C15.056 3.58623 14.6453 3.63527 14.2284 3.40232C13.3089 2.85059 12.7142 1.69809 12.2974 0.735636C12.1135 0.324906 12.0215 0 12.0215 0C12.0215 0 11.8805 0.410732 11.7579 0.729507C11.2981 1.69196 10.6974 2.84446 9.77781 3.39619C9.41 3.62914 8.99926 3.5801 8.5824 3.5801C8.80923 3.905 8.95022 4.046 9.22609 4.64064C9.45904 5.14332 9.68586 5.65214 9.7349 6.20386C9.82685 6.70655 9.68586 7.35023 9.22609 7.67514C8.76631 7.951 8.21459 7.85905 7.79773 7.58318C7.38087 7.35023 7.01305 6.98241 6.64523 6.61459C6.27741 6.19773 6.18546 6.01996 5.9525 5.69505C5.9525 5.787 5.95251 5.787 5.90346 5.83605C5.67051 6.29582 5.39465 6.80463 4.84292 7.0805C4.06437 7.49736 2.96092 7.44831 1.99233 7.35636C1.80842 7.35636 1.80842 7.35636 1.62451 7.30732C1.85746 7.54027 1.90038 7.54027 2.13333 7.85905C2.91188 8.73568 3.69655 9.79009 3.88046 10.8935C3.97242 11.4024 3.73947 11.905 3.55556 12.3219C3.51264 12.4139 3.51264 12.4139 3.4636 12.4629C3.73947 12.5058 3.78851 12.5058 4.15633 12.6468C4.4751 12.7388 4.80001 12.8736 5.07587 13.0575C5.39465 13.2414 5.67051 13.5602 5.71955 13.9771C5.7686 14.4859 5.49273 14.9457 5.16783 15.2644C4.84292 15.6384 4.43219 15.9081 4.01533 16.1411C3.78851 16.2759 3.78851 16.233 3.55556 16.325C3.55556 16.3679 3.55556 16.3679 3.6046 16.3679C4.29732 16.5518 5.07587 16.8277 5.58469 17.3794C5.9525 17.7472 6.04446 18.207 6.18546 18.6238C6.46132 18.348 6.55327 18.207 7.06209 17.7472C7.98163 17.0116 9.03605 16.184 10.0966 16.0001C10.5993 15.9572 11.0161 16.184 11.292 16.3679C11.6108 16.5028 11.8437 16.6438 12.0276 16.6438C12.1686 16.6438 12.3955 16.5089 12.7204 16.3679C13.0391 16.184 13.407 15.951 13.9158 16.0001C15.0192 16.184 16.0736 17.0116 16.9503 17.7472C17.453 18.207 17.5939 18.348 17.8698 18.6238C17.9618 18.207 18.0966 17.7472 18.4215 17.3794C18.9242 16.8277 19.7518 16.5518 20.4445 16.3679C20.4445 16.325 20.4445 16.325 20.4445 16.325C20.2606 16.233 20.2177 16.2821 19.9848 16.1411C19.5679 15.9081 19.1572 15.6323 18.8323 15.2644C18.5135 14.9457 18.2315 14.4859 18.2805 13.9771C18.3235 13.5664 18.6484 13.2414 18.9242 13.0575C19.2001 12.8798 19.5679 12.7388 19.8928 12.6468C20.2116 12.5119 20.3035 12.5119 20.5365 12.4629C20.4936 12.4139 20.4936 12.4139 20.4445 12.3219C20.2606 11.905 20.0706 11.4024 20.1196 10.8935C20.3035 9.79009 21.1311 8.73568 21.8668 7.85905Z" fill="#E55241"/>
<path d="M11.5372 17.5571L11.0774 24H12.9165L12.4567 17.5571H11.5372Z" fill="#E55241"/>
</svg>
