<svg width="40" height="40" viewBox="0 0 40 40" fill="none" xmlns="http://www.w3.org/2000/svg">
<rect width="40" height="40" rx="4" fill="#E55241" fill-opacity="0.1"/>
<g clip-path="url(#clip0_87_738)">
<path d="M29.3359 28.2109L24.7344 23.6094C25.875 22.2188 26.5625 20.4375 26.5625 18.4961C26.5625 14.043 22.9492 10.4297 18.4961 10.4297C14.0391 10.4297 10.4297 14.043 10.4297 18.4961C10.4297 22.9492 14.0391 26.5625 18.4961 26.5625C20.4375 26.5625 22.2148 25.8789 23.6055 24.7383L28.207 29.3359C28.5195 29.6484 29.0234 29.6484 29.3359 29.3359C29.6484 29.0273 29.6484 28.5195 29.3359 28.2109ZM18.4961 24.957C14.9297 24.957 12.0312 22.0586 12.0312 18.4961C12.0312 14.9336 14.9297 12.0312 18.4961 12.0312C22.0586 12.0312 24.9609 14.9336 24.9609 18.4961C24.9609 22.0586 22.0586 24.957 18.4961 24.957Z" fill="#E55241"/>
</g>
<defs>
<clipPath id="clip0_87_738">
<rect width="20" height="20" fill="white" transform="translate(10 10)"/>
</clipPath>
</defs>
</svg>
