<svg width="24" height="24" viewBox="0 0 24 24" fill="none" xmlns="http://www.w3.org/2000/svg">
<path d="M21.8673 7.85905C22.1431 7.54027 22.3761 7.30732 22.3761 7.30732C22.3761 7.30732 22.2412 7.35636 22.0083 7.35636C20.4879 7.49736 18.8818 7.4054 18.0971 5.84218C18.0481 5.79313 18.0971 5.79313 18.0481 5.70118C17.8151 6.01995 17.7232 6.20386 17.3554 6.62072C17.0366 6.98854 16.6688 7.35636 16.2519 7.58931C15.835 7.86517 15.2833 7.95713 14.8235 7.68126C14.3209 7.36249 14.2228 6.71881 14.2718 6.20999C14.3638 5.65827 14.5477 5.14945 14.7806 4.64677C15.0565 4.046 15.1914 3.905 15.4243 3.58623C15.0565 3.58623 14.6458 3.63527 14.2289 3.40232C13.3094 2.85059 12.7147 1.69809 12.2979 0.735636C12.1139 0.324906 12.022 0 12.022 0C12.022 0 11.881 0.410732 11.7584 0.729507C11.2986 1.69196 10.6978 2.84446 9.7783 3.39619C9.41048 3.62914 8.99975 3.5801 8.58289 3.5801C8.80971 3.905 8.95071 4.046 9.22657 4.64064C9.45952 5.14332 9.68635 5.65214 9.73539 6.20386C9.82734 6.70655 9.68635 7.35023 9.22657 7.67514C8.7668 7.951 8.21507 7.85905 7.79821 7.58318C7.38135 7.35023 7.01354 6.98241 6.64572 6.61459C6.2779 6.19773 6.18594 6.01996 5.95299 5.69505C5.95299 5.787 5.95299 5.787 5.90395 5.83605C5.671 6.29582 5.39514 6.80463 4.84341 7.0805C4.06486 7.49736 2.96141 7.44831 1.99282 7.35636C1.80891 7.35636 1.80891 7.35636 1.625 7.30732C1.85795 7.54027 1.90086 7.54027 2.13381 7.85905C2.91236 8.73568 3.69704 9.79009 3.88095 10.8935C3.97291 11.4024 3.73995 11.905 3.55604 12.3219C3.51313 12.4139 3.51313 12.4139 3.46409 12.4629C3.73995 12.5058 3.789 12.5058 4.15681 12.6468C4.47559 12.7388 4.8005 12.8736 5.07636 13.0575C5.39514 13.2414 5.671 13.5602 5.72004 13.9771C5.76908 14.4859 5.49322 14.9457 5.16831 15.2644C4.84341 15.6384 4.43268 15.9081 4.01582 16.1411C3.789 16.2759 3.789 16.233 3.55604 16.325C3.55604 16.3679 3.55604 16.3679 3.60509 16.3679C4.29781 16.5518 5.07636 16.8277 5.58517 17.3794C5.95299 17.7472 6.04495 18.207 6.18594 18.6238C6.46181 18.348 6.55376 18.207 7.06258 17.7472C7.98212 17.0116 9.03653 16.184 10.0971 16.0001C10.5998 15.9572 11.0166 16.184 11.2925 16.3679C11.6113 16.5028 11.8442 16.6438 12.0281 16.6438C12.1691 16.6438 12.3959 16.5089 12.7208 16.3679C13.0396 16.184 13.4074 15.951 13.9163 16.0001C15.0197 16.184 16.0741 17.0116 16.9508 17.7472C17.4534 18.207 17.5944 18.348 17.8703 18.6238C17.9623 18.207 18.0971 17.7472 18.422 17.3794C18.9247 16.8277 19.7523 16.5518 20.445 16.3679C20.445 16.325 20.445 16.325 20.445 16.325C20.2611 16.233 20.2182 16.2821 19.9853 16.1411C19.5684 15.9081 19.1577 15.6323 18.8328 15.2644C18.514 14.9457 18.232 14.4859 18.281 13.9771C18.3239 13.5664 18.6488 13.2414 18.9247 13.0575C19.2006 12.8798 19.5684 12.7388 19.8933 12.6468C20.2121 12.5119 20.304 12.5119 20.537 12.4629C20.4941 12.4139 20.4941 12.4139 20.445 12.3219C20.2611 11.905 20.0711 11.4024 20.1201 10.8935C20.304 9.79009 21.1316 8.73568 21.8673 7.85905Z" fill="#E55241"/>
<path d="M11.5379 17.557L11.0781 24H12.9172L12.4575 17.557H11.5379Z" fill="#E55241"/>
</svg>
