<svg width="18" height="18" viewBox="0 0 18 18" fill="none" xmlns="http://www.w3.org/2000/svg">
<path d="M5.99906 8.99984C5.99872 8.8246 6.05975 8.65477 6.17156 8.51984L9.92156 4.01984C10.0489 3.86668 10.2318 3.77036 10.4301 3.75207C10.6284 3.73379 10.8259 3.79504 10.9791 3.92234C11.1322 4.04964 11.2285 4.23258 11.2468 4.4309C11.2651 4.62922 11.2039 4.82668 11.0766 4.97984L7.71656 8.99984L10.9566 13.0198C11.0189 13.0966 11.0654 13.1848 11.0935 13.2796C11.1215 13.3743 11.1306 13.4737 11.1201 13.572C11.1097 13.6702 11.0799 13.7655 11.0325 13.8522C10.9852 13.9389 10.9211 14.0154 10.8441 14.0773C10.7669 14.146 10.6765 14.198 10.5783 14.2301C10.4802 14.2622 10.3764 14.2737 10.2736 14.2639C10.1708 14.254 10.0712 14.223 9.98092 14.1729C9.89065 14.1227 9.81172 14.0544 9.74906 13.9723L6.12656 9.47234C6.03243 9.33353 5.98753 9.16717 5.99906 8.99984Z" fill="#AFB2C4"/>
</svg>
