<svg width="16" height="16" viewBox="0 0 16 16" fill="none" xmlns="http://www.w3.org/2000/svg">
<path d="M8.00047 5.33332C8.15624 5.33302 8.30719 5.38727 8.42713 5.48666L12.4271 8.81999C12.5633 8.93315 12.6489 9.09576 12.6651 9.27204C12.6814 9.44832 12.627 9.62385 12.5138 9.75999C12.4006 9.89613 12.238 9.98175 12.0617 9.998C11.8855 10.0143 11.7099 9.95982 11.5738 9.84666L8.00047 6.85999L4.42714 9.73999C4.35894 9.79537 4.28048 9.83672 4.19625 9.86168C4.11203 9.88663 4.0237 9.89469 3.93635 9.8854C3.849 9.87611 3.76434 9.84964 3.68725 9.80753C3.61016 9.76541 3.54215 9.70847 3.48714 9.63999C3.42608 9.57144 3.37984 9.49102 3.35131 9.40378C3.32279 9.31653 3.31258 9.22433 3.32135 9.13295C3.33011 9.04158 3.35765 8.95299 3.40223 8.87276C3.44682 8.79252 3.5075 8.72235 3.58047 8.66666L7.58047 5.44666C7.70386 5.36298 7.85173 5.32308 8.00047 5.33332Z" fill="#E55241"/>
</svg>
