<svg width="16" height="16" viewBox="0 0 16 16" fill="none" xmlns="http://www.w3.org/2000/svg">
<path d="M10.6667 7.99998C10.667 8.15575 10.6127 8.30671 10.5133 8.42665L7.18 12.4266C7.06684 12.5628 6.90424 12.6484 6.72795 12.6647C6.55167 12.6809 6.37615 12.6265 6.24 12.5133C6.10386 12.4002 6.01824 12.2375 6.00199 12.0613C5.98574 11.885 6.04018 11.7095 6.15334 11.5733L9.14 7.99998L6.26 4.42665C6.20463 4.35846 6.16327 4.27999 6.13832 4.19577C6.11336 4.11154 6.1053 4.02321 6.11459 3.93586C6.12389 3.84851 6.15035 3.76385 6.19247 3.68676C6.23458 3.60967 6.29152 3.54166 6.36 3.48665C6.42855 3.42559 6.50897 3.37935 6.59622 3.35083C6.68347 3.3223 6.77567 3.3121 6.86704 3.32086C6.95842 3.32962 7.047 3.35716 7.12724 3.40175C7.20747 3.44634 7.27764 3.50701 7.33334 3.57998L10.5533 7.57998C10.637 7.70337 10.6769 7.85125 10.6667 7.99998V7.99998Z" fill="#1E222E"/>
</svg>
