<svg width="16" height="16" viewBox="0 0 16 16" fill="none" xmlns="http://www.w3.org/2000/svg">
<path d="M5.33332 8.00002C5.33302 7.84425 5.38727 7.69329 5.48666 7.57335L8.81999 3.57335C8.93315 3.43721 9.09576 3.35159 9.27204 3.33534C9.44832 3.31909 9.62385 3.37353 9.75999 3.48669C9.89613 3.59985 9.98175 3.76245 9.998 3.93874C10.0143 4.11502 9.95982 4.29054 9.84666 4.42669L6.85999 8.00002L9.73999 11.5734C9.79537 11.6415 9.83672 11.72 9.86167 11.8042C9.88663 11.8885 9.89469 11.9768 9.8854 12.0641C9.87611 12.1515 9.84964 12.2361 9.80753 12.3132C9.76541 12.3903 9.70847 12.4583 9.63999 12.5134C9.57144 12.5744 9.49102 12.6206 9.40377 12.6492C9.31653 12.6777 9.22433 12.6879 9.13295 12.6791C9.04157 12.6704 8.95299 12.6428 8.87275 12.5983C8.79252 12.5537 8.72235 12.493 8.66666 12.42L5.44666 8.42002C5.36298 8.29663 5.32308 8.14875 5.33332 8.00002Z" fill="#1E222E"/>
</svg>
