<svg width="20" height="20" viewBox="0 0 20 20" fill="none" xmlns="http://www.w3.org/2000/svg">
<path d="M20 8.82644C20 7.20998 18.8162 5.86483 17.2701 5.61213C16.7846 3.49625 14.8909 1.95691 12.673 1.95691C10.6894 1.95691 8.92136 3.20829 8.24553 5.04408C5.93992 5.57093 4.10755 7.40396 3.62359 9.76672C1.58247 10.0285 0 11.7769 0 13.888C0 16.1792 1.864 18.0432 4.15518 18.0432H15.0666C17.3577 18.0432 19.2217 16.1792 19.2217 13.888C19.2217 13.0281 18.9591 12.2285 18.5099 11.565C19.4259 10.9774 20 9.95996 20 8.82644ZM12.6731 3.19402C14.4365 3.19402 15.9221 4.51237 16.1287 6.26066L16.1932 6.80664H16.7429C17.8567 6.80664 18.7629 7.71274 18.7629 8.82644C18.7629 9.60569 18.3259 10.2968 17.6474 10.6339C17.0692 10.1744 16.3661 9.86524 15.5981 9.76668C15.0267 6.97683 12.5754 4.92557 9.68474 4.8911C10.3019 3.8605 11.4297 3.19402 12.6731 3.19402ZM15.0666 16.8061H4.15518C2.54614 16.8061 1.23711 15.497 1.23711 13.888C1.23711 12.279 2.54623 10.9699 4.15538 10.9699H4.70515L4.76965 10.424C5.05905 7.97452 7.14033 6.12743 9.61085 6.12743C12.0814 6.12743 14.1626 7.97452 14.452 10.424L14.5165 10.9699H15.0663C16.6754 10.9699 17.9846 12.279 17.9846 13.888C17.9846 15.497 16.6756 16.8061 15.0666 16.8061Z" fill="#3A3E48"/>
</svg>
