<svg width="20" height="20" viewBox="0 0 20 20" fill="none" xmlns="http://www.w3.org/2000/svg">
<g clip-path="url(#clip0_96_2421)">
<path d="M10.0002 18.6487C9.89908 18.6487 9.79794 18.6225 9.70732 18.5702C9.60888 18.5134 7.27017 17.1555 4.89791 15.1095C3.4919 13.8969 2.36956 12.6941 1.56214 11.5348C0.517297 10.0345 -0.00813146 8.5915 0.000345081 7.24568C0.0102669 5.67967 0.571164 4.20694 1.57983 3.09874C2.60554 1.97186 3.97436 1.35132 5.43424 1.35132C7.30521 1.35132 9.0158 2.39936 10.0003 4.05959C10.9848 2.3994 12.6954 1.35132 14.5663 1.35132C15.9455 1.35132 17.2614 1.91124 18.2718 2.92796C19.3805 4.0437 20.0105 5.62018 20.0002 7.2531C19.9916 8.59658 19.4564 10.0374 18.4092 11.5356C17.5993 12.6944 16.4785 13.8966 15.078 15.1088C12.7144 17.1546 10.3925 18.5125 10.2948 18.5693C10.2038 18.6222 10.102 18.6487 10.0002 18.6487Z" fill="#FFE1DD"/>
</g>
<defs>
<clipPath id="clip0_96_2421">
<rect width="20" height="20" fill="white"/>
</clipPath>
</defs>
</svg>
