<svg width="36" height="36" viewBox="0 0 36 36" fill="none" xmlns="http://www.w3.org/2000/svg">
<path d="M32.8002 11.7886C33.2139 11.3104 33.5634 10.961 33.5634 10.961C33.5634 10.961 33.3611 11.0345 33.0116 11.0345C30.7312 11.246 28.322 11.1081 27.1449 8.76326C27.0714 8.6897 27.1449 8.6897 27.0714 8.55177C26.722 9.02993 26.584 9.3058 26.0323 9.93109C25.5541 10.4828 25.0024 11.0345 24.3771 11.384C23.7518 11.7978 22.9242 11.9357 22.2346 11.5219C21.4805 11.0437 21.3334 10.0782 21.407 9.31499C21.5449 8.4874 21.8208 7.72418 22.1702 6.97015C22.584 6.069 22.7863 5.8575 23.1357 5.37934C22.584 5.37934 21.9679 5.4529 21.3426 5.10347C19.9633 4.27588 19.0713 2.54714 18.4461 1.10345C18.1702 0.487359 18.0323 0 18.0323 0C18.0323 0 17.8208 0.616097 17.6368 1.09426C16.9472 2.53795 16.046 4.26669 14.6667 5.09428C14.115 5.44371 13.4989 5.37014 12.8736 5.37014C13.2138 5.8575 13.4253 6.069 13.8391 6.96096C14.1886 7.71498 14.5288 8.47821 14.6023 9.3058C14.7403 10.0598 14.5288 11.0253 13.8391 11.5127C13.1495 11.9265 12.3219 11.7886 11.6966 11.3748C11.0713 11.0253 10.5196 10.4736 9.96784 9.92189C9.41612 9.2966 9.27818 9.02993 8.92876 8.54257C8.92876 8.68051 8.92876 8.68051 8.85519 8.75407C8.50577 9.44373 8.09197 10.2069 7.26438 10.6207C6.09656 11.246 4.44138 11.1725 2.98849 11.0345C2.71263 11.0345 2.71263 11.0345 2.43677 10.961C2.78619 11.3104 2.85056 11.3104 3.19999 11.7886C4.36781 13.1035 5.54483 14.6851 5.82069 16.3403C5.95863 17.1035 5.6092 17.8576 5.33333 18.4829C5.26897 18.6208 5.26897 18.6208 5.1954 18.6943C5.6092 18.7587 5.68276 18.7587 6.23449 18.9702C6.71265 19.1081 7.20001 19.3104 7.61381 19.5863C8.09197 19.8622 8.50577 20.3403 8.57933 20.9656C8.65289 21.7288 8.2391 22.4185 7.75174 22.8967C7.26438 23.4576 6.64828 23.8622 6.02299 24.2116C5.68276 24.4139 5.68276 24.3496 5.33333 24.4875C5.33333 24.5518 5.33333 24.5519 5.4069 24.5519C6.44598 24.8277 7.61381 25.2415 8.37703 26.0691C8.92876 26.6208 9.06669 27.3105 9.27818 27.9358C9.69198 27.522 9.82991 27.3105 10.5931 26.6208C11.9725 25.5174 13.5541 24.276 15.1449 24.0001C15.8989 23.9358 16.5242 24.276 16.938 24.5519C17.4162 24.7542 17.7656 24.9656 18.0415 24.9656C18.2529 24.9656 18.5932 24.7633 19.0805 24.5519C19.5587 24.276 20.1104 23.9266 20.8736 24.0001C22.5288 24.276 24.1104 25.5174 25.4254 26.6208C26.1794 27.3105 26.3909 27.522 26.8047 27.9358C26.9426 27.3105 27.1449 26.6208 27.6323 26.0691C28.3863 25.2415 29.6277 24.8277 30.6668 24.5519C30.6668 24.4875 30.6668 24.4875 30.6668 24.4875C30.3909 24.3496 30.3266 24.4231 29.9771 24.2116C29.3519 23.8622 28.7358 23.4484 28.2484 22.8967C27.7702 22.4185 27.3472 21.7288 27.4208 20.9656C27.4852 20.3495 27.9725 19.8622 28.3863 19.5863C28.8001 19.3196 29.3519 19.1081 29.8392 18.9702C30.3174 18.7679 30.4553 18.7679 30.8047 18.6943C30.7404 18.6208 30.7404 18.6208 30.6668 18.4829C30.3909 17.8576 30.1059 17.1035 30.1794 16.3403C30.4553 14.6851 31.6967 13.1035 32.8002 11.7886Z" fill="#E55241"/>
<path d="M17.3059 26.3356L16.6162 36H19.3749L18.6852 26.3356H17.3059Z" fill="#E55241"/>
</svg>
