<svg width="17" height="3" viewBox="0 0 17 3" fill="none" xmlns="http://www.w3.org/2000/svg">
<path d="M1.5 3C2.32843 3 3 2.32843 3 1.5C3 0.671573 2.32843 0 1.5 0C0.671573 0 0 0.671573 0 1.5C0 2.32843 0.671573 3 1.5 3Z" fill="#DBDFEC"/>
<path d="M8.5 3C9.32843 3 10 2.32843 10 1.5C10 0.671573 9.32843 0 8.5 0C7.67157 0 7 0.671573 7 1.5C7 2.32843 7.67157 3 8.5 3Z" fill="#DBDFEC"/>
<path d="M15.5 3C16.3284 3 17 2.32843 17 1.5C17 0.671573 16.3284 0 15.5 0C14.6716 0 14 0.671573 14 1.5C14 2.32843 14.6716 3 15.5 3Z" fill="#DBDFEC"/>
</svg>
