<svg width="12" height="12" viewBox="0 0 12 12" fill="none" xmlns="http://www.w3.org/2000/svg">
<g clip-path="url(#clip0_96_2530)">
<path d="M0.354887 5.48464C1.07824 3.68555 3.03132 2.78598 6.21434 2.78598H7.71432V1.07172C7.71432 0.955573 7.75675 0.855118 7.84153 0.77033C7.92637 0.685495 8.02673 0.643066 8.14285 0.643066C8.259 0.643066 8.35945 0.685495 8.44424 0.77033L11.8728 4.19885C11.9576 4.28375 12 4.38416 12 4.50024C12 4.61629 11.9576 4.7167 11.8728 4.80156L8.44422 8.23017C8.35934 8.31491 8.25888 8.35748 8.14283 8.35748C8.0268 8.35748 7.92637 8.31493 7.84151 8.23017C7.7567 8.1454 7.71429 8.04492 7.71429 7.92882V6.21445H6.21431C5.77691 6.21445 5.38522 6.22777 5.03927 6.25451C4.69334 6.28132 4.34941 6.3293 4.00803 6.39859C3.66644 6.46778 3.3695 6.56256 3.11725 6.68321C2.86505 6.80386 2.62954 6.95894 2.41076 7.14859C2.19195 7.33843 2.01337 7.56373 1.8749 7.82499C1.73661 8.08618 1.62832 8.39519 1.55015 8.75236C1.47214 9.10954 1.43295 9.51359 1.43295 9.96436C1.43295 10.2098 1.44418 10.4845 1.46644 10.788C1.46644 10.8147 1.47197 10.8672 1.48321 10.9454C1.4943 11.0235 1.49991 11.0826 1.49991 11.1227C1.49991 11.1896 1.48096 11.2454 1.44308 11.2901C1.40503 11.3347 1.35254 11.357 1.2856 11.357C1.21416 11.357 1.15173 11.3191 1.09811 11.2431C1.06696 11.203 1.03804 11.1539 1.01109 11.0958C0.984285 11.0378 0.9541 10.9709 0.920701 10.895C0.887137 10.819 0.863707 10.7657 0.850385 10.7343C0.283492 9.46223 -2.47955e-05 8.45556 -2.47955e-05 7.71445C2.19345e-05 6.82616 0.118256 6.08278 0.354887 5.48464Z" fill="#A6A6A6"/>
</g>
<defs>
<clipPath id="clip0_96_2530">
<rect width="12" height="12" fill="white" transform="matrix(-1 0 0 1 12 0)"/>
</clipPath>
</defs>
</svg>
