<svg width="44" height="44" viewBox="0 0 44 44" fill="none" xmlns="http://www.w3.org/2000/svg">
<path d="M0 0H40C42.2091 0 44 1.79086 44 4V40C44 42.2091 42.2091 44 40 44H0V0Z" fill="#E55241" fill-opacity="0.1"/>
<path fill-rule="evenodd" clip-rule="evenodd" d="M28.851 16.4512C28.9366 16.3658 29.0044 16.2644 29.0507 16.1527C29.0971 16.0411 29.1209 15.9214 29.121 15.8006C29.1211 15.6797 29.0974 15.56 29.0512 15.4483C29.005 15.3366 28.9373 15.2351 28.8518 15.1496C28.7664 15.0641 28.665 14.9962 28.5534 14.9499C28.4417 14.9036 28.3221 14.8797 28.2012 14.8796C28.0803 14.8796 27.9606 14.9033 27.849 14.9495C27.7373 14.9957 27.6358 15.0634 27.5502 15.1488L21.9998 20.6992L16.451 15.1488C16.2783 14.9761 16.0441 14.8791 15.7998 14.8791C15.5556 14.8791 15.3214 14.9761 15.1486 15.1488C14.9759 15.3215 14.8789 15.5557 14.8789 15.8C14.8789 16.0442 14.9759 16.2785 15.1486 16.4512L20.699 22L15.1486 27.5488C15.0631 27.6343 14.9953 27.7358 14.949 27.8476C14.9027 27.9593 14.8789 28.0791 14.8789 28.2C14.8789 28.3209 14.9027 28.4407 14.949 28.5524C14.9953 28.6642 15.0631 28.7657 15.1486 28.8512C15.3214 29.0239 15.5556 29.1209 15.7998 29.1209C15.9208 29.1209 16.0405 29.0971 16.1523 29.0508C16.264 29.0045 16.3655 28.9367 16.451 28.8512L21.9998 23.3008L27.5502 28.8512C27.723 29.0237 27.9571 29.1205 28.2012 29.1204C28.4453 29.1202 28.6793 29.0231 28.8518 28.8504C29.0243 28.6777 29.1212 28.4435 29.121 28.1994C29.1209 27.9553 29.0238 27.7213 28.851 27.5488L23.3006 22L28.851 16.4512Z" fill="#E55241"/>
</svg>
