<svg width="122" height="24" viewBox="0 0 122 24" fill="none" xmlns="http://www.w3.org/2000/svg">
<rect width="122" height="24" fill="#E62117"/>
<rect x="84" width="38" height="24" fill="#FAFAFA"/>
<g clip-path="url(#clip0_96_2295)">
<path d="M12.9353 14.7188L18.3371 11.7891L12.9353 8.82422V14.7188ZM15 4.61719C16.25 4.61719 17.4573 4.63477 18.6217 4.66992C19.7861 4.70508 20.6399 4.74219 21.1831 4.78125L21.9978 4.82812C22.0052 4.82812 22.0685 4.83398 22.1875 4.8457C22.3066 4.85742 22.3921 4.86914 22.4442 4.88086C22.4963 4.89258 22.5837 4.91016 22.7065 4.93359C22.8293 4.95703 22.9353 4.98828 23.0246 5.02734C23.1139 5.06641 23.218 5.11719 23.3371 5.17969C23.4561 5.24219 23.5715 5.31836 23.6831 5.4082C23.7947 5.49805 23.9026 5.60156 24.0067 5.71875C24.0514 5.76562 24.109 5.83789 24.1797 5.93555C24.2504 6.0332 24.3583 6.26172 24.5034 6.62109C24.6485 6.98047 24.747 7.375 24.7991 7.80469C24.8587 8.30469 24.9052 8.83789 24.9386 9.4043C24.9721 9.9707 24.9926 10.4141 25 10.7344V12.7969C25.0075 13.9297 24.9405 15.0625 24.7991 16.1953C24.747 16.625 24.654 17.0137 24.5201 17.3613C24.3862 17.709 24.2671 17.9492 24.163 18.082L24.0067 18.2812C23.9026 18.3984 23.7947 18.502 23.6831 18.5918C23.5715 18.6816 23.4561 18.7559 23.3371 18.8145C23.218 18.873 23.1139 18.9219 23.0246 18.9609C22.9353 19 22.8293 19.0312 22.7065 19.0547C22.5837 19.0781 22.4944 19.0957 22.4386 19.1074C22.3828 19.1191 22.2973 19.1309 22.1819 19.1426C22.0666 19.1543 22.0052 19.1602 21.9978 19.1602C20.1302 19.3086 17.7977 19.3828 15 19.3828C13.4599 19.3672 12.1224 19.3418 10.9878 19.3066C9.85311 19.2715 9.1072 19.2422 8.75006 19.2188L8.20319 19.1719L7.8014 19.125C7.53355 19.0859 7.33079 19.0469 7.19314 19.0078C7.0555 18.9688 6.86576 18.8867 6.62395 18.7617C6.38213 18.6367 6.17194 18.4766 5.99337 18.2812C5.94873 18.2344 5.89106 18.1621 5.82038 18.0645C5.7497 17.9668 5.64181 17.7383 5.49672 17.3789C5.35163 17.0195 5.25305 16.625 5.20096 16.1953C5.14144 15.6953 5.09494 15.1621 5.06145 14.5957C5.02797 14.0293 5.00751 13.5859 5.00007 13.2656V11.2031C4.99263 10.0703 5.05959 8.9375 5.20096 7.80469C5.25305 7.375 5.34605 6.98633 5.47998 6.63867C5.61391 6.29102 5.73295 6.05078 5.83712 5.91797L5.99337 5.71875C6.09754 5.60156 6.20542 5.49805 6.31703 5.4082C6.42864 5.31836 6.54396 5.24219 6.66301 5.17969C6.78206 5.11719 6.88623 5.06641 6.97551 5.02734C7.0648 4.98828 7.17082 4.95703 7.29359 4.93359C7.41636 4.91016 7.50378 4.89258 7.55587 4.88086C7.60795 4.86914 7.69352 4.85742 7.81256 4.8457C7.93161 4.83398 7.99485 4.82812 8.00229 4.82812C9.86985 4.6875 12.2024 4.61719 15 4.61719Z" fill="white"/>
</g>
<path d="M37.524 16H36.12V12.676L33.012 7.996H34.62L36.828 11.428L39.012 7.996H40.62L37.524 12.676V16ZM42.5726 16.144C41.6766 16.144 40.9566 15.852 40.4126 15.268C39.8686 14.676 39.5966 13.952 39.5966 13.096C39.5966 12.24 39.8686 11.52 40.4126 10.936C40.9566 10.352 41.6766 10.06 42.5726 10.06C43.4766 10.06 44.2006 10.352 44.7446 10.936C45.2886 11.52 45.5606 12.24 45.5606 13.096C45.5606 13.96 45.2886 14.684 44.7446 15.268C44.2006 15.852 43.4766 16.144 42.5726 16.144ZM42.5726 15.028C43.0926 15.028 43.5006 14.844 43.7966 14.476C44.1006 14.1 44.2526 13.64 44.2526 13.096C44.2526 12.56 44.1006 12.108 43.7966 11.74C43.5006 11.364 43.0926 11.176 42.5726 11.176C42.0606 11.176 41.6526 11.364 41.3486 11.74C41.0526 12.108 40.9046 12.56 40.9046 13.096C40.9046 13.64 41.0526 14.1 41.3486 14.476C41.6526 14.844 42.0606 15.028 42.5726 15.028ZM52.0075 16H50.7475V15.232C50.2035 15.84 49.5195 16.144 48.6955 16.144C47.4555 16.144 46.8355 15.532 46.8355 14.308V10.204H48.0955V13.852C48.0955 14.276 48.1955 14.58 48.3955 14.764C48.5955 14.94 48.8835 15.028 49.2595 15.028C49.5635 15.028 49.8475 14.956 50.1115 14.812C50.3755 14.668 50.5875 14.488 50.7475 14.272V10.204H52.0075V16ZM56.0898 16H54.6858V9.232H52.2618V7.996H58.5138V9.232H56.0898V16ZM63.9372 16H62.6772V15.232C62.1332 15.84 61.4492 16.144 60.6252 16.144C59.3852 16.144 58.7652 15.532 58.7652 14.308V10.204H60.0252V13.852C60.0252 14.276 60.1252 14.58 60.3252 14.764C60.5252 14.94 60.8132 15.028 61.1892 15.028C61.4932 15.028 61.7772 14.956 62.0412 14.812C62.3052 14.668 62.5172 14.488 62.6772 14.272V10.204H63.9372V16ZM66.8338 14.26C66.9698 14.476 67.1778 14.66 67.4578 14.812C67.7458 14.956 68.0338 15.028 68.3218 15.028C68.8178 15.028 69.2138 14.852 69.5098 14.5C69.8138 14.14 69.9658 13.676 69.9658 13.108C69.9658 12.54 69.8138 12.076 69.5098 11.716C69.2138 11.356 68.8178 11.176 68.3218 11.176C68.0338 11.176 67.7498 11.252 67.4698 11.404C67.1898 11.556 66.9778 11.744 66.8338 11.968V14.26ZM66.8338 16H65.5738V7.996H66.8338V11.008C67.3058 10.376 67.9258 10.06 68.6938 10.06C69.4458 10.06 70.0618 10.34 70.5418 10.9C71.0218 11.452 71.2618 12.188 71.2618 13.108C71.2618 14.044 71.0218 14.784 70.5418 15.328C70.0618 15.872 69.4458 16.144 68.6938 16.144C67.9338 16.144 67.3138 15.832 66.8338 15.208V16ZM75.2225 16.144C74.3425 16.144 73.6145 15.864 73.0385 15.304C72.4705 14.736 72.1865 14 72.1865 13.096C72.1865 12.248 72.4625 11.532 73.0145 10.948C73.5745 10.356 74.2785 10.06 75.1265 10.06C75.9825 10.06 76.6705 10.356 77.1905 10.948C77.7185 11.54 77.9825 12.296 77.9825 13.216V13.516H73.5065C73.5545 13.972 73.7425 14.352 74.0705 14.656C74.3985 14.96 74.8265 15.112 75.3545 15.112C75.6505 15.112 75.9465 15.056 76.2425 14.944C76.5465 14.832 76.7985 14.676 76.9985 14.476L77.5745 15.304C76.9905 15.864 76.2065 16.144 75.2225 16.144ZM76.7585 12.628C76.7425 12.228 76.5945 11.872 76.3145 11.56C76.0425 11.248 75.6465 11.092 75.1265 11.092C74.6305 11.092 74.2425 11.248 73.9625 11.56C73.6825 11.864 73.5265 12.22 73.4945 12.628H76.7585Z" fill="white"/>
<path d="M92.18 16.132C91.244 16.132 90.48 15.836 89.888 15.244L90.536 14.188C90.984 14.652 91.532 14.884 92.18 14.884C92.86 14.884 93.38 14.628 93.74 14.116C94.108 13.596 94.292 12.976 94.292 12.256V12.016C94.084 12.312 93.784 12.576 93.392 12.808C93 13.032 92.584 13.144 92.144 13.144C91.384 13.144 90.744 12.916 90.224 12.46C89.712 12.004 89.456 11.368 89.456 10.552C89.456 9.792 89.728 9.156 90.272 8.644C90.824 8.124 91.536 7.864 92.408 7.864C93.16 7.864 93.788 8.06 94.292 8.452C94.804 8.836 95.168 9.332 95.384 9.94C95.6 10.54 95.708 11.228 95.708 12.004C95.708 13.204 95.4 14.192 94.784 14.968C94.168 15.744 93.3 16.132 92.18 16.132ZM92.516 11.932C92.86 11.932 93.188 11.848 93.5 11.68C93.812 11.512 94.068 11.284 94.268 10.996C94.228 10.492 94.06 10.052 93.764 9.676C93.476 9.3 93.048 9.112 92.48 9.112C91.992 9.112 91.604 9.256 91.316 9.544C91.028 9.832 90.884 10.152 90.884 10.504C90.884 10.968 91.04 11.324 91.352 11.572C91.664 11.812 92.052 11.932 92.516 11.932ZM99.387 16.132C98.451 16.132 97.687 15.836 97.095 15.244L97.743 14.188C98.191 14.652 98.739 14.884 99.387 14.884C100.067 14.884 100.587 14.628 100.947 14.116C101.315 13.596 101.499 12.976 101.499 12.256V12.016C101.291 12.312 100.991 12.576 100.599 12.808C100.207 13.032 99.791 13.144 99.351 13.144C98.591 13.144 97.951 12.916 97.431 12.46C96.919 12.004 96.663 11.368 96.663 10.552C96.663 9.792 96.935 9.156 97.479 8.644C98.031 8.124 98.743 7.864 99.615 7.864C100.367 7.864 100.995 8.06 101.499 8.452C102.011 8.836 102.375 9.332 102.591 9.94C102.807 10.54 102.915 11.228 102.915 12.004C102.915 13.204 102.607 14.192 101.991 14.968C101.375 15.744 100.507 16.132 99.387 16.132ZM99.723 11.932C100.067 11.932 100.395 11.848 100.707 11.68C101.019 11.512 101.275 11.284 101.475 10.996C101.435 10.492 101.267 10.052 100.971 9.676C100.683 9.3 100.255 9.112 99.687 9.112C99.199 9.112 98.811 9.256 98.523 9.544C98.235 9.832 98.091 10.152 98.091 10.504C98.091 10.968 98.247 11.324 98.559 11.572C98.871 11.812 99.259 11.932 99.723 11.932ZM106.594 16.132C105.658 16.132 104.894 15.836 104.302 15.244L104.95 14.188C105.398 14.652 105.946 14.884 106.594 14.884C107.274 14.884 107.794 14.628 108.154 14.116C108.522 13.596 108.706 12.976 108.706 12.256V12.016C108.498 12.312 108.198 12.576 107.806 12.808C107.414 13.032 106.998 13.144 106.558 13.144C105.798 13.144 105.158 12.916 104.638 12.46C104.126 12.004 103.87 11.368 103.87 10.552C103.87 9.792 104.142 9.156 104.686 8.644C105.238 8.124 105.95 7.864 106.822 7.864C107.574 7.864 108.202 8.06 108.706 8.452C109.218 8.836 109.582 9.332 109.798 9.94C110.014 10.54 110.122 11.228 110.122 12.004C110.122 13.204 109.814 14.192 109.198 14.968C108.582 15.744 107.714 16.132 106.594 16.132ZM106.93 11.932C107.274 11.932 107.602 11.848 107.914 11.68C108.226 11.512 108.482 11.284 108.682 10.996C108.642 10.492 108.474 10.052 108.178 9.676C107.89 9.3 107.462 9.112 106.894 9.112C106.406 9.112 106.018 9.256 105.73 9.544C105.442 9.832 105.298 10.152 105.298 10.504C105.298 10.968 105.454 11.324 105.766 11.572C106.078 11.812 106.466 11.932 106.93 11.932ZM116.297 12.364H114.077V14.848H113.189V12.364H110.969V11.548H113.189V9.148H114.077V11.548H116.297V12.364Z" fill="#AFB2C4"/>
<defs>
<clipPath id="clip0_96_2295">
<rect width="20" height="15" fill="white" transform="translate(5 4.5)"/>
</clipPath>
</defs>
</svg>
