<svg width="24" height="24" viewBox="0 0 24 24" fill="none" xmlns="http://www.w3.org/2000/svg">
<path d="M8.0007 11.9998C8.00025 11.7661 8.08162 11.5397 8.2307 11.3598L13.2307 5.35976C13.4004 5.15554 13.6444 5.02712 13.9088 5.00274C14.1732 4.97836 14.4365 5.06002 14.6407 5.22976C14.8449 5.3995 14.9733 5.64341 14.9977 5.90783C15.0221 6.17226 14.9404 6.43554 14.7707 6.63976L10.2907 11.9998L14.6107 17.3598C14.6938 17.462 14.7558 17.5797 14.7932 17.7061C14.8307 17.8324 14.8428 17.9649 14.8288 18.0959C14.8149 18.227 14.7752 18.3539 14.712 18.4696C14.6488 18.5852 14.5634 18.6872 14.4607 18.7698C14.3579 18.8613 14.2373 18.9307 14.1064 18.9735C13.9755 19.0163 13.8372 19.0316 13.7001 19.0184C13.5631 19.0053 13.4302 18.964 13.3098 18.8971C13.1895 18.8302 13.0842 18.7392 13.0007 18.6298L8.1707 12.6298C8.04519 12.4447 7.98533 12.2229 8.0007 11.9998Z" fill="#AFB2C4"/>
</svg>
